<svg xmlns="http://www.w3.org/2000/svg" xmlns:xlink="http://www.w3.org/1999/xlink" width="1500" zoomAndPan="magnify" viewBox="0 0 1125 749.999995" height="1000" preserveAspectRatio="xMidYMid meet" version="1.0"><defs><clipPath id="4acea0bebe"><path d="M 689 8 L 741.75 8 L 741.75 66 L 689 66 Z M 689 8 " clip-rule="nonzero"/></clipPath><clipPath id="476bbd7ece"><path d="M 689 52 L 741.75 52 L 741.75 110 L 689 110 Z M 689 52 " clip-rule="nonzero"/></clipPath><clipPath id="4c29f2608e"><path d="M 689 96 L 741.75 96 L 741.75 154 L 689 154 Z M 689 96 " clip-rule="nonzero"/></clipPath><clipPath id="020ecb0a32"><path d="M 689 141 L 741.75 141 L 741.75 198 L 689 198 Z M 689 141 " clip-rule="nonzero"/></clipPath><clipPath id="d99744685f"><path d="M 689 185 L 741.75 185 L 741.75 242 L 689 242 Z M 689 185 " clip-rule="nonzero"/></clipPath><clipPath id="e1b53f3bfa"><path d="M 689 229 L 741.75 229 L 741.75 286 L 689 286 Z M 689 229 " clip-rule="nonzero"/></clipPath><clipPath id="7450f6c4f8"><path d="M 689 273 L 741.75 273 L 741.75 330 L 689 330 Z M 689 273 " clip-rule="nonzero"/></clipPath><clipPath id="f6b0767658"><path d="M 689 317 L 741.75 317 L 741.75 374 L 689 374 Z M 689 317 " clip-rule="nonzero"/></clipPath><clipPath id="9dd7f95a6c"><path d="M 689 361 L 741.75 361 L 741.75 418 L 689 418 Z M 689 361 " clip-rule="nonzero"/></clipPath><clipPath id="fa9bc230c7"><path d="M 689 405 L 741.75 405 L 741.75 462 L 689 462 Z M 689 405 " clip-rule="nonzero"/></clipPath><clipPath id="5574d2687a"><path d="M 689 449 L 741.75 449 L 741.75 507 L 689 507 Z M 689 449 " clip-rule="nonzero"/></clipPath><clipPath id="301a72d57c"><path d="M 689 493 L 741.75 493 L 741.75 551 L 689 551 Z M 689 493 " clip-rule="nonzero"/></clipPath><clipPath id="914f08be0f"><path d="M 689 537 L 741.75 537 L 741.75 595 L 689 595 Z M 689 537 " clip-rule="nonzero"/></clipPath><clipPath id="321bb40a49"><path d="M 689 581 L 741.75 581 L 741.75 639 L 689 639 Z M 689 581 " clip-rule="nonzero"/></clipPath><clipPath id="b6e5150fd9"><path d="M 689 625 L 741.75 625 L 741.75 683 L 689 683 Z M 689 625 " clip-rule="nonzero"/></clipPath><clipPath id="8fce10aad8"><path d="M 689 669 L 741.75 669 L 741.75 727 L 689 727 Z M 689 669 " clip-rule="nonzero"/></clipPath><clipPath id="943ebe97df"><path d="M 703 713 L 741.75 713 L 741.75 750 L 703 750 Z M 703 713 " clip-rule="nonzero"/></clipPath><clipPath id="7578f696a9"><path d="M 769.617188 8 L 823 8 L 823 66 L 769.617188 66 Z M 769.617188 8 " clip-rule="nonzero"/></clipPath><clipPath id="556d20bfd7"><path d="M 769.617188 52 L 823 52 L 823 110 L 769.617188 110 Z M 769.617188 52 " clip-rule="nonzero"/></clipPath><clipPath id="19766e6799"><path d="M 769.617188 96 L 823 96 L 823 154 L 769.617188 154 Z M 769.617188 96 " clip-rule="nonzero"/></clipPath><clipPath id="83029581e3"><path d="M 769.617188 141 L 823 141 L 823 198 L 769.617188 198 Z M 769.617188 141 " clip-rule="nonzero"/></clipPath><clipPath id="cdcad9fa8f"><path d="M 769.617188 185 L 823 185 L 823 242 L 769.617188 242 Z M 769.617188 185 " clip-rule="nonzero"/></clipPath><clipPath id="5a21102fd0"><path d="M 769.617188 229 L 823 229 L 823 286 L 769.617188 286 Z M 769.617188 229 " clip-rule="nonzero"/></clipPath><clipPath id="8e853f1192"><path d="M 769.617188 273 L 823 273 L 823 330 L 769.617188 330 Z M 769.617188 273 " clip-rule="nonzero"/></clipPath><clipPath id="8564ccc866"><path d="M 769.617188 317 L 823 317 L 823 374 L 769.617188 374 Z M 769.617188 317 " clip-rule="nonzero"/></clipPath><clipPath id="c5c1cd1014"><path d="M 769.617188 361 L 823 361 L 823 418 L 769.617188 418 Z M 769.617188 361 " clip-rule="nonzero"/></clipPath><clipPath id="c4d2f83df4"><path d="M 769.617188 405 L 823 405 L 823 462 L 769.617188 462 Z M 769.617188 405 " clip-rule="nonzero"/></clipPath><clipPath id="1a844f66d6"><path d="M 769.617188 449 L 823 449 L 823 507 L 769.617188 507 Z M 769.617188 449 " clip-rule="nonzero"/></clipPath><clipPath id="858c321e9e"><path d="M 769.617188 493 L 823 493 L 823 551 L 769.617188 551 Z M 769.617188 493 " clip-rule="nonzero"/></clipPath><clipPath id="06c2a10bdc"><path d="M 769.617188 537 L 823 537 L 823 595 L 769.617188 595 Z M 769.617188 537 " clip-rule="nonzero"/></clipPath><clipPath id="6ef584549d"><path d="M 769.617188 581 L 823 581 L 823 639 L 769.617188 639 Z M 769.617188 581 " clip-rule="nonzero"/></clipPath><clipPath id="5cd308a937"><path d="M 769.617188 625 L 823 625 L 823 683 L 769.617188 683 Z M 769.617188 625 " clip-rule="nonzero"/></clipPath><clipPath id="a572c47d2b"><path d="M 769.617188 669 L 823 669 L 823 727 L 769.617188 727 Z M 769.617188 669 " clip-rule="nonzero"/></clipPath><clipPath id="9313fb1d05"><path d="M 769.617188 713 L 809 713 L 809 750 L 769.617188 750 Z M 769.617188 713 " clip-rule="nonzero"/></clipPath></defs><path fill="#c99b04" d="M 314.285156 0 L 291.613281 21.171875 L 291.613281 14.003906 L 306.617188 0 Z M 314.285156 0 " fill-opacity="1" fill-rule="nonzero"/><path fill="#c99b04" d="M 353.621094 7.167969 L 291.613281 65.347656 L 291.613281 58.011719 L 353.621094 0 Z M 353.621094 7.167969 " fill-opacity="1" fill-rule="nonzero"/><path fill="#c99b04" d="M 353.621094 51.34375 L 291.613281 109.359375 L 291.613281 102.1875 L 353.621094 44.011719 Z M 353.621094 51.34375 " fill-opacity="1" fill-rule="nonzero"/><path fill="#c99b04" d="M 353.621094 95.355469 L 291.613281 153.367188 L 291.613281 146.199219 L 353.621094 88.1875 Z M 353.621094 95.355469 " fill-opacity="1" fill-rule="nonzero"/><path fill="#c99b04" d="M 353.621094 139.363281 L 291.613281 197.542969 L 291.613281 190.375 L 353.621094 132.195312 Z M 353.621094 139.363281 " fill-opacity="1" fill-rule="nonzero"/><path fill="#c99b04" d="M 353.621094 183.539062 L 291.613281 241.554688 L 291.613281 234.386719 L 353.621094 176.371094 Z M 353.621094 183.539062 " fill-opacity="1" fill-rule="nonzero"/><path fill="#c99b04" d="M 353.621094 227.550781 L 291.613281 285.730469 L 291.613281 278.394531 L 353.621094 220.382812 Z M 353.621094 227.550781 " fill-opacity="1" fill-rule="nonzero"/><path fill="#c99b04" d="M 353.621094 271.726562 L 291.613281 329.738281 L 291.613281 322.570312 L 353.621094 264.390625 Z M 353.621094 271.726562 " fill-opacity="1" fill-rule="nonzero"/><path fill="#c99b04" d="M 353.621094 315.738281 L 291.613281 373.75 L 291.613281 366.582031 L 353.621094 308.570312 Z M 353.621094 315.738281 " fill-opacity="1" fill-rule="nonzero"/><path fill="#c99b04" d="M 353.621094 359.746094 L 291.613281 417.925781 L 291.613281 410.757812 L 353.621094 352.578125 Z M 353.621094 359.746094 " fill-opacity="1" fill-rule="nonzero"/><path fill="#c99b04" d="M 353.621094 403.921875 L 291.613281 461.9375 L 291.613281 454.769531 L 353.621094 396.753906 Z M 353.621094 403.921875 " fill-opacity="1" fill-rule="nonzero"/><path fill="#c99b04" d="M 353.621094 447.933594 L 291.613281 506.113281 L 291.613281 498.777344 L 353.621094 440.765625 Z M 353.621094 447.933594 " fill-opacity="1" fill-rule="nonzero"/><path fill="#c99b04" d="M 353.621094 492.109375 L 291.613281 550.121094 L 291.613281 542.953125 L 353.621094 484.773438 Z M 353.621094 492.109375 " fill-opacity="1" fill-rule="nonzero"/><path fill="#c99b04" d="M 353.621094 536.117188 L 291.613281 594.132812 L 291.613281 586.964844 L 353.621094 528.949219 Z M 353.621094 536.117188 " fill-opacity="1" fill-rule="nonzero"/><path fill="#c99b04" d="M 353.621094 580.128906 L 291.613281 638.308594 L 291.613281 631.140625 L 353.621094 572.960938 Z M 353.621094 580.128906 " fill-opacity="1" fill-rule="nonzero"/><path fill="#c99b04" d="M 353.621094 624.304688 L 291.613281 682.316406 L 291.613281 675.148438 L 353.621094 617.136719 Z M 353.621094 624.304688 " fill-opacity="1" fill-rule="nonzero"/><path fill="#c99b04" d="M 353.621094 668.316406 L 291.613281 726.496094 L 291.613281 719.160156 L 353.621094 661.148438 Z M 353.621094 668.316406 " fill-opacity="1" fill-rule="nonzero"/><path fill="#c99b04" d="M 353.621094 712.492188 L 313.617188 750 L 305.949219 750 L 353.621094 705.15625 Z M 353.621094 712.492188 " fill-opacity="1" fill-rule="nonzero"/><path fill="#c99b04" d="M 239.105469 0 L 254.109375 14.003906 L 254.109375 21.171875 L 231.4375 0 Z M 239.105469 0 " fill-opacity="1" fill-rule="nonzero"/><path fill="#c99b04" d="M 192.097656 0 L 254.109375 58.011719 L 254.109375 65.347656 L 192.097656 7.167969 Z M 192.097656 0 " fill-opacity="1" fill-rule="nonzero"/><path fill="#c99b04" d="M 192.097656 44.011719 L 254.109375 102.1875 L 254.109375 109.359375 L 192.097656 51.34375 Z M 192.097656 44.011719 " fill-opacity="1" fill-rule="nonzero"/><path fill="#c99b04" d="M 192.097656 88.1875 L 254.109375 146.199219 L 254.109375 153.367188 L 192.097656 95.355469 Z M 192.097656 88.1875 " fill-opacity="1" fill-rule="nonzero"/><path fill="#c99b04" d="M 192.097656 132.195312 L 254.109375 190.375 L 254.109375 197.542969 L 192.097656 139.363281 Z M 192.097656 132.195312 " fill-opacity="1" fill-rule="nonzero"/><path fill="#c99b04" d="M 192.097656 176.371094 L 254.109375 234.386719 L 254.109375 241.554688 L 192.097656 183.539062 Z M 192.097656 176.371094 " fill-opacity="1" fill-rule="nonzero"/><path fill="#c99b04" d="M 192.097656 220.382812 L 254.109375 278.394531 L 254.109375 285.730469 L 192.097656 227.550781 Z M 192.097656 220.382812 " fill-opacity="1" fill-rule="nonzero"/><path fill="#c99b04" d="M 192.097656 264.390625 L 254.109375 322.570312 L 254.109375 329.738281 L 192.097656 271.726562 Z M 192.097656 264.390625 " fill-opacity="1" fill-rule="nonzero"/><path fill="#c99b04" d="M 192.097656 308.570312 L 254.109375 366.582031 L 254.109375 373.75 L 192.097656 315.738281 Z M 192.097656 308.570312 " fill-opacity="1" fill-rule="nonzero"/><path fill="#c99b04" d="M 192.097656 352.578125 L 254.109375 410.757812 L 254.109375 417.925781 L 192.097656 359.746094 Z M 192.097656 352.578125 " fill-opacity="1" fill-rule="nonzero"/><path fill="#c99b04" d="M 192.097656 396.753906 L 254.109375 454.769531 L 254.109375 461.9375 L 192.097656 403.921875 Z M 192.097656 396.753906 " fill-opacity="1" fill-rule="nonzero"/><path fill="#c99b04" d="M 192.097656 440.765625 L 254.109375 498.777344 L 254.109375 506.113281 L 192.097656 447.933594 Z M 192.097656 440.765625 " fill-opacity="1" fill-rule="nonzero"/><path fill="#c99b04" d="M 192.097656 484.773438 L 254.109375 542.953125 L 254.109375 550.121094 L 192.097656 492.109375 Z M 192.097656 484.773438 " fill-opacity="1" fill-rule="nonzero"/><path fill="#c99b04" d="M 192.097656 528.949219 L 254.109375 586.964844 L 254.109375 594.132812 L 192.097656 536.117188 Z M 192.097656 528.949219 " fill-opacity="1" fill-rule="nonzero"/><path fill="#c99b04" d="M 192.097656 572.960938 L 254.109375 631.140625 L 254.109375 638.308594 L 192.097656 580.128906 Z M 192.097656 572.960938 " fill-opacity="1" fill-rule="nonzero"/><path fill="#c99b04" d="M 192.097656 617.136719 L 254.109375 675.148438 L 254.109375 682.316406 L 192.097656 624.304688 Z M 192.097656 617.136719 " fill-opacity="1" fill-rule="nonzero"/><path fill="#c99b04" d="M 192.097656 661.148438 L 254.109375 719.160156 L 254.109375 726.496094 L 192.097656 668.316406 Z M 192.097656 661.148438 " fill-opacity="1" fill-rule="nonzero"/><path fill="#c99b04" d="M 192.097656 705.15625 L 239.773438 750 L 232.105469 750 L 192.097656 712.492188 Z M 192.097656 705.15625 " fill-opacity="1" fill-rule="nonzero"/><path fill="#c99b04" d="M 113.089844 0 L 90.417969 21.171875 L 90.417969 14.003906 L 105.421875 0 Z M 113.089844 0 " fill-opacity="1" fill-rule="nonzero"/><path fill="#c99b04" d="M 152.425781 7.167969 L 90.417969 65.347656 L 90.417969 58.011719 L 152.425781 0 Z M 152.425781 7.167969 " fill-opacity="1" fill-rule="nonzero"/><path fill="#c99b04" d="M 152.425781 51.34375 L 90.417969 109.359375 L 90.417969 102.1875 L 152.425781 44.011719 Z M 152.425781 51.34375 " fill-opacity="1" fill-rule="nonzero"/><path fill="#c99b04" d="M 152.425781 95.355469 L 90.417969 153.367188 L 90.417969 146.199219 L 152.425781 88.1875 Z M 152.425781 95.355469 " fill-opacity="1" fill-rule="nonzero"/><path fill="#c99b04" d="M 152.425781 139.363281 L 90.417969 197.542969 L 90.417969 190.375 L 152.425781 132.195312 Z M 152.425781 139.363281 " fill-opacity="1" fill-rule="nonzero"/><path fill="#c99b04" d="M 152.425781 183.539062 L 90.417969 241.554688 L 90.417969 234.386719 L 152.425781 176.371094 Z M 152.425781 183.539062 " fill-opacity="1" fill-rule="nonzero"/><path fill="#c99b04" d="M 152.425781 227.550781 L 90.417969 285.730469 L 90.417969 278.394531 L 152.425781 220.382812 Z M 152.425781 227.550781 " fill-opacity="1" fill-rule="nonzero"/><path fill="#c99b04" d="M 152.425781 271.726562 L 90.417969 329.738281 L 90.417969 322.570312 L 152.425781 264.390625 Z M 152.425781 271.726562 " fill-opacity="1" fill-rule="nonzero"/><path fill="#c99b04" d="M 152.425781 315.738281 L 90.417969 373.75 L 90.417969 366.582031 L 152.425781 308.570312 Z M 152.425781 315.738281 " fill-opacity="1" fill-rule="nonzero"/><path fill="#c99b04" d="M 152.425781 359.746094 L 90.417969 417.925781 L 90.417969 410.757812 L 152.425781 352.578125 Z M 152.425781 359.746094 " fill-opacity="1" fill-rule="nonzero"/><path fill="#c99b04" d="M 152.425781 403.921875 L 90.417969 461.9375 L 90.417969 454.769531 L 152.425781 396.753906 Z M 152.425781 403.921875 " fill-opacity="1" fill-rule="nonzero"/><path fill="#c99b04" d="M 152.425781 447.933594 L 90.417969 506.113281 L 90.417969 498.777344 L 152.425781 440.765625 Z M 152.425781 447.933594 " fill-opacity="1" fill-rule="nonzero"/><path fill="#c99b04" d="M 152.425781 492.109375 L 90.417969 550.121094 L 90.417969 542.953125 L 152.425781 484.773438 Z M 152.425781 492.109375 " fill-opacity="1" fill-rule="nonzero"/><path fill="#c99b04" d="M 152.425781 536.117188 L 90.417969 594.132812 L 90.417969 586.964844 L 152.425781 528.949219 Z M 152.425781 536.117188 " fill-opacity="1" fill-rule="nonzero"/><path fill="#c99b04" d="M 152.425781 580.128906 L 90.417969 638.308594 L 90.417969 631.140625 L 152.425781 572.960938 Z M 152.425781 580.128906 " fill-opacity="1" fill-rule="nonzero"/><path fill="#c99b04" d="M 152.425781 624.304688 L 90.417969 682.316406 L 90.417969 675.148438 L 152.425781 617.136719 Z M 152.425781 624.304688 " fill-opacity="1" fill-rule="nonzero"/><path fill="#c99b04" d="M 152.425781 668.316406 L 90.417969 726.496094 L 90.417969 719.160156 L 152.425781 661.148438 Z M 152.425781 668.316406 " fill-opacity="1" fill-rule="nonzero"/><path fill="#c99b04" d="M 152.425781 712.492188 L 112.421875 750 L 104.753906 750 L 152.425781 705.15625 Z M 152.425781 712.492188 " fill-opacity="1" fill-rule="nonzero"/><path fill="#c99b04" d="M 37.910156 0 L 52.914062 14.003906 L 52.914062 21.171875 L 30.242188 0 Z M 37.910156 0 " fill-opacity="1" fill-rule="nonzero"/><path fill="#c99b04" d="M 0.238281 8.835938 L 52.914062 58.011719 L 52.914062 65.347656 L 0.238281 16.003906 Z M 0.238281 8.835938 " fill-opacity="1" fill-rule="nonzero"/><path fill="#c99b04" d="M 0.238281 52.84375 L 52.914062 102.1875 L 52.914062 109.359375 L 0.238281 60.011719 Z M 0.238281 52.84375 " fill-opacity="1" fill-rule="nonzero"/><path fill="#c99b04" d="M 0.238281 96.855469 L 52.914062 146.199219 L 52.914062 153.367188 L 0.238281 104.191406 Z M 0.238281 96.855469 " fill-opacity="1" fill-rule="nonzero"/><path fill="#c99b04" d="M 0.238281 141.03125 L 52.914062 190.375 L 52.914062 197.542969 L 0.238281 148.199219 Z M 0.238281 141.03125 " fill-opacity="1" fill-rule="nonzero"/><path fill="#c99b04" d="M 0.238281 185.042969 L 52.914062 234.386719 L 52.914062 241.554688 L 0.238281 192.210938 Z M 0.238281 185.042969 " fill-opacity="1" fill-rule="nonzero"/><path fill="#c99b04" d="M 0.238281 229.21875 L 52.914062 278.394531 L 52.914062 285.730469 L 0.238281 236.386719 Z M 0.238281 229.21875 " fill-opacity="1" fill-rule="nonzero"/><path fill="#c99b04" d="M 0.238281 273.226562 L 52.914062 322.570312 L 52.914062 329.738281 L 0.238281 280.394531 Z M 0.238281 273.226562 " fill-opacity="1" fill-rule="nonzero"/><path fill="#c99b04" d="M 0.238281 317.238281 L 52.914062 366.582031 L 52.914062 373.75 L 0.238281 324.570312 Z M 0.238281 317.238281 " fill-opacity="1" fill-rule="nonzero"/><path fill="#c99b04" d="M 0.238281 361.414062 L 52.914062 410.757812 L 52.914062 417.925781 L 0.238281 368.582031 Z M 0.238281 361.414062 " fill-opacity="1" fill-rule="nonzero"/><path fill="#c99b04" d="M 0.238281 405.421875 L 52.914062 454.769531 L 52.914062 461.9375 L 0.238281 412.589844 Z M 0.238281 405.421875 " fill-opacity="1" fill-rule="nonzero"/><path fill="#c99b04" d="M 0.238281 449.601562 L 52.914062 498.777344 L 52.914062 506.113281 L 0.238281 456.769531 Z M 0.238281 449.601562 " fill-opacity="1" fill-rule="nonzero"/><path fill="#c99b04" d="M 0.238281 493.609375 L 52.914062 542.953125 L 52.914062 550.121094 L 0.238281 500.777344 Z M 0.238281 493.609375 " fill-opacity="1" fill-rule="nonzero"/><path fill="#c99b04" d="M 0.238281 537.621094 L 52.914062 586.964844 L 52.914062 594.132812 L 0.238281 544.953125 Z M 0.238281 537.621094 " fill-opacity="1" fill-rule="nonzero"/><path fill="#c99b04" d="M 0.238281 581.796875 L 52.914062 631.140625 L 52.914062 638.308594 L 0.238281 588.964844 Z M 0.238281 581.796875 " fill-opacity="1" fill-rule="nonzero"/><path fill="#c99b04" d="M 0.238281 625.804688 L 52.914062 675.148438 L 52.914062 682.316406 L 0.238281 632.972656 Z M 0.238281 625.804688 " fill-opacity="1" fill-rule="nonzero"/><path fill="#c99b04" d="M 0.238281 669.980469 L 52.914062 719.160156 L 52.914062 726.496094 L 0.238281 677.152344 Z M 0.238281 669.980469 " fill-opacity="1" fill-rule="nonzero"/><path fill="#c99b04" d="M 0.238281 713.992188 L 38.578125 750 L 30.910156 750 L 0.238281 721.160156 Z M 0.238281 713.992188 " fill-opacity="1" fill-rule="nonzero"/><path fill="#c99b04" d="M 435.132812 0 L 450.136719 14.003906 L 450.136719 21.171875 L 427.464844 0 Z M 435.132812 0 " fill-opacity="1" fill-rule="nonzero"/><path fill="#c99b04" d="M 388.128906 0 L 450.136719 58.011719 L 450.136719 65.347656 L 388.128906 7.167969 Z M 388.128906 0 " fill-opacity="1" fill-rule="nonzero"/><path fill="#c99b04" d="M 388.128906 44.011719 L 450.136719 102.1875 L 450.136719 109.359375 L 388.128906 51.34375 Z M 388.128906 44.011719 " fill-opacity="1" fill-rule="nonzero"/><path fill="#c99b04" d="M 388.128906 88.1875 L 450.136719 146.199219 L 450.136719 153.367188 L 388.128906 95.355469 Z M 388.128906 88.1875 " fill-opacity="1" fill-rule="nonzero"/><path fill="#c99b04" d="M 388.128906 132.195312 L 450.136719 190.375 L 450.136719 197.542969 L 388.128906 139.363281 Z M 388.128906 132.195312 " fill-opacity="1" fill-rule="nonzero"/><path fill="#c99b04" d="M 388.128906 176.371094 L 450.136719 234.386719 L 450.136719 241.554688 L 388.128906 183.539062 Z M 388.128906 176.371094 " fill-opacity="1" fill-rule="nonzero"/><path fill="#c99b04" d="M 388.128906 220.382812 L 450.136719 278.394531 L 450.136719 285.730469 L 388.128906 227.550781 Z M 388.128906 220.382812 " fill-opacity="1" fill-rule="nonzero"/><path fill="#c99b04" d="M 388.128906 264.390625 L 450.136719 322.570312 L 450.136719 329.738281 L 388.128906 271.726562 Z M 388.128906 264.390625 " fill-opacity="1" fill-rule="nonzero"/><path fill="#c99b04" d="M 388.128906 308.570312 L 450.136719 366.582031 L 450.136719 373.75 L 388.128906 315.738281 Z M 388.128906 308.570312 " fill-opacity="1" fill-rule="nonzero"/><path fill="#c99b04" d="M 388.128906 352.578125 L 450.136719 410.757812 L 450.136719 417.925781 L 388.128906 359.746094 Z M 388.128906 352.578125 " fill-opacity="1" fill-rule="nonzero"/><path fill="#c99b04" d="M 388.128906 396.753906 L 450.136719 454.769531 L 450.136719 461.9375 L 388.128906 403.921875 Z M 388.128906 396.753906 " fill-opacity="1" fill-rule="nonzero"/><path fill="#c99b04" d="M 388.128906 440.765625 L 450.136719 498.777344 L 450.136719 506.113281 L 388.128906 447.933594 Z M 388.128906 440.765625 " fill-opacity="1" fill-rule="nonzero"/><path fill="#c99b04" d="M 388.128906 484.773438 L 450.136719 542.953125 L 450.136719 550.121094 L 388.128906 492.109375 Z M 388.128906 484.773438 " fill-opacity="1" fill-rule="nonzero"/><path fill="#c99b04" d="M 388.128906 528.949219 L 450.136719 586.964844 L 450.136719 594.132812 L 388.128906 536.117188 Z M 388.128906 528.949219 " fill-opacity="1" fill-rule="nonzero"/><path fill="#c99b04" d="M 388.128906 572.960938 L 450.136719 631.140625 L 450.136719 638.308594 L 388.128906 580.128906 Z M 388.128906 572.960938 " fill-opacity="1" fill-rule="nonzero"/><path fill="#c99b04" d="M 388.128906 617.136719 L 450.136719 675.148438 L 450.136719 682.316406 L 388.128906 624.304688 Z M 388.128906 617.136719 " fill-opacity="1" fill-rule="nonzero"/><path fill="#c99b04" d="M 388.128906 661.148438 L 450.136719 719.160156 L 450.136719 726.496094 L 388.128906 668.316406 Z M 388.128906 661.148438 " fill-opacity="1" fill-rule="nonzero"/><path fill="#c99b04" d="M 388.128906 705.15625 L 435.800781 750 L 428.132812 750 L 388.128906 712.492188 Z M 388.128906 705.15625 " fill-opacity="1" fill-rule="nonzero"/><path fill="#c99b04" d="M 510.3125 0 L 487.640625 21.171875 L 487.640625 14.003906 L 502.644531 0 Z M 510.3125 0 " fill-opacity="1" fill-rule="nonzero"/><path fill="#c99b04" d="M 549.652344 7.167969 L 487.640625 65.347656 L 487.640625 58.011719 L 549.652344 0 Z M 549.652344 7.167969 " fill-opacity="1" fill-rule="nonzero"/><path fill="#c99b04" d="M 549.652344 51.34375 L 487.640625 109.359375 L 487.640625 102.1875 L 549.652344 44.011719 Z M 549.652344 51.34375 " fill-opacity="1" fill-rule="nonzero"/><path fill="#c99b04" d="M 549.652344 95.355469 L 487.640625 153.367188 L 487.640625 146.199219 L 549.652344 88.1875 Z M 549.652344 95.355469 " fill-opacity="1" fill-rule="nonzero"/><path fill="#c99b04" d="M 549.652344 139.363281 L 487.640625 197.542969 L 487.640625 190.375 L 549.652344 132.195312 Z M 549.652344 139.363281 " fill-opacity="1" fill-rule="nonzero"/><path fill="#c99b04" d="M 549.652344 183.539062 L 487.640625 241.554688 L 487.640625 234.386719 L 549.652344 176.371094 Z M 549.652344 183.539062 " fill-opacity="1" fill-rule="nonzero"/><path fill="#c99b04" d="M 549.652344 227.550781 L 487.640625 285.730469 L 487.640625 278.394531 L 549.652344 220.382812 Z M 549.652344 227.550781 " fill-opacity="1" fill-rule="nonzero"/><path fill="#c99b04" d="M 549.652344 271.726562 L 487.640625 329.738281 L 487.640625 322.570312 L 549.652344 264.390625 Z M 549.652344 271.726562 " fill-opacity="1" fill-rule="nonzero"/><path fill="#c99b04" d="M 549.652344 315.738281 L 487.640625 373.75 L 487.640625 366.582031 L 549.652344 308.570312 Z M 549.652344 315.738281 " fill-opacity="1" fill-rule="nonzero"/><path fill="#c99b04" d="M 549.652344 359.746094 L 487.640625 417.925781 L 487.640625 410.757812 L 549.652344 352.578125 Z M 549.652344 359.746094 " fill-opacity="1" fill-rule="nonzero"/><path fill="#c99b04" d="M 549.652344 403.921875 L 487.640625 461.9375 L 487.640625 454.769531 L 549.652344 396.753906 Z M 549.652344 403.921875 " fill-opacity="1" fill-rule="nonzero"/><path fill="#c99b04" d="M 549.652344 447.933594 L 487.640625 506.113281 L 487.640625 498.777344 L 549.652344 440.765625 Z M 549.652344 447.933594 " fill-opacity="1" fill-rule="nonzero"/><path fill="#c99b04" d="M 549.652344 492.109375 L 487.640625 550.121094 L 487.640625 542.953125 L 549.652344 484.773438 Z M 549.652344 492.109375 " fill-opacity="1" fill-rule="nonzero"/><path fill="#c99b04" d="M 549.652344 536.117188 L 487.640625 594.132812 L 487.640625 586.964844 L 549.652344 528.949219 Z M 549.652344 536.117188 " fill-opacity="1" fill-rule="nonzero"/><path fill="#c99b04" d="M 549.652344 580.128906 L 487.640625 638.308594 L 487.640625 631.140625 L 549.652344 572.960938 Z M 549.652344 580.128906 " fill-opacity="1" fill-rule="nonzero"/><path fill="#c99b04" d="M 549.652344 624.304688 L 487.640625 682.316406 L 487.640625 675.148438 L 549.652344 617.136719 Z M 549.652344 624.304688 " fill-opacity="1" fill-rule="nonzero"/><path fill="#c99b04" d="M 549.652344 668.316406 L 487.640625 726.496094 L 487.640625 719.160156 L 549.652344 661.148438 Z M 549.652344 668.316406 " fill-opacity="1" fill-rule="nonzero"/><path fill="#c99b04" d="M 549.652344 712.492188 L 509.644531 750 L 501.976562 750 L 549.652344 705.15625 Z M 549.652344 712.492188 " fill-opacity="1" fill-rule="nonzero"/><path fill="#c99b04" d="M 636.328125 0 L 651.332031 14.003906 L 651.332031 21.171875 L 628.660156 0 Z M 636.328125 0 " fill-opacity="1" fill-rule="nonzero"/><path fill="#c99b04" d="M 589.324219 0 L 651.332031 58.011719 L 651.332031 65.347656 L 589.324219 7.167969 Z M 589.324219 0 " fill-opacity="1" fill-rule="nonzero"/><path fill="#c99b04" d="M 589.324219 44.011719 L 651.332031 102.1875 L 651.332031 109.359375 L 589.324219 51.34375 Z M 589.324219 44.011719 " fill-opacity="1" fill-rule="nonzero"/><path fill="#c99b04" d="M 589.324219 88.1875 L 651.332031 146.199219 L 651.332031 153.367188 L 589.324219 95.355469 Z M 589.324219 88.1875 " fill-opacity="1" fill-rule="nonzero"/><path fill="#c99b04" d="M 589.324219 132.195312 L 651.332031 190.375 L 651.332031 197.542969 L 589.324219 139.363281 Z M 589.324219 132.195312 " fill-opacity="1" fill-rule="nonzero"/><path fill="#c99b04" d="M 589.324219 176.371094 L 651.332031 234.386719 L 651.332031 241.554688 L 589.324219 183.539062 Z M 589.324219 176.371094 " fill-opacity="1" fill-rule="nonzero"/><path fill="#c99b04" d="M 589.324219 220.382812 L 651.332031 278.394531 L 651.332031 285.730469 L 589.324219 227.550781 Z M 589.324219 220.382812 " fill-opacity="1" fill-rule="nonzero"/><path fill="#c99b04" d="M 589.324219 264.390625 L 651.332031 322.570312 L 651.332031 329.738281 L 589.324219 271.726562 Z M 589.324219 264.390625 " fill-opacity="1" fill-rule="nonzero"/><path fill="#c99b04" d="M 589.324219 308.570312 L 651.332031 366.582031 L 651.332031 373.75 L 589.324219 315.738281 Z M 589.324219 308.570312 " fill-opacity="1" fill-rule="nonzero"/><path fill="#c99b04" d="M 589.324219 352.578125 L 651.332031 410.757812 L 651.332031 417.925781 L 589.324219 359.746094 Z M 589.324219 352.578125 " fill-opacity="1" fill-rule="nonzero"/><path fill="#c99b04" d="M 589.324219 396.753906 L 651.332031 454.769531 L 651.332031 461.9375 L 589.324219 403.921875 Z M 589.324219 396.753906 " fill-opacity="1" fill-rule="nonzero"/><path fill="#c99b04" d="M 589.324219 440.765625 L 651.332031 498.777344 L 651.332031 506.113281 L 589.324219 447.933594 Z M 589.324219 440.765625 " fill-opacity="1" fill-rule="nonzero"/><path fill="#c99b04" d="M 589.324219 484.773438 L 651.332031 542.953125 L 651.332031 550.121094 L 589.324219 492.109375 Z M 589.324219 484.773438 " fill-opacity="1" fill-rule="nonzero"/><path fill="#c99b04" d="M 589.324219 528.949219 L 651.332031 586.964844 L 651.332031 594.132812 L 589.324219 536.117188 Z M 589.324219 528.949219 " fill-opacity="1" fill-rule="nonzero"/><path fill="#c99b04" d="M 589.324219 572.960938 L 651.332031 631.140625 L 651.332031 638.308594 L 589.324219 580.128906 Z M 589.324219 572.960938 " fill-opacity="1" fill-rule="nonzero"/><path fill="#c99b04" d="M 589.324219 617.136719 L 651.332031 675.148438 L 651.332031 682.316406 L 589.324219 624.304688 Z M 589.324219 617.136719 " fill-opacity="1" fill-rule="nonzero"/><path fill="#c99b04" d="M 589.324219 661.148438 L 651.332031 719.160156 L 651.332031 726.496094 L 589.324219 668.316406 Z M 589.324219 661.148438 " fill-opacity="1" fill-rule="nonzero"/><path fill="#c99b04" d="M 589.324219 705.15625 L 636.996094 750 L 629.328125 750 L 589.324219 712.492188 Z M 589.324219 705.15625 " fill-opacity="1" fill-rule="nonzero"/><path fill="#c99b04" d="M 711.507812 0 L 689.003906 21.171875 L 689.003906 14.003906 L 703.839844 0 Z M 711.507812 0 " fill-opacity="1" fill-rule="nonzero"/><g clip-path="url(#4acea0bebe)"><path fill="#c99b04" d="M 741.511719 16.003906 L 689.003906 65.347656 L 689.003906 58.011719 L 741.511719 8.835938 Z M 741.511719 16.003906 " fill-opacity="1" fill-rule="nonzero"/></g><g clip-path="url(#476bbd7ece)"><path fill="#c99b04" d="M 741.511719 60.011719 L 689.003906 109.359375 L 689.003906 102.1875 L 741.511719 52.84375 Z M 741.511719 60.011719 " fill-opacity="1" fill-rule="nonzero"/></g><g clip-path="url(#4c29f2608e)"><path fill="#c99b04" d="M 741.511719 104.191406 L 689.003906 153.367188 L 689.003906 146.199219 L 741.511719 96.855469 Z M 741.511719 104.191406 " fill-opacity="1" fill-rule="nonzero"/></g><g clip-path="url(#020ecb0a32)"><path fill="#c99b04" d="M 741.511719 148.199219 L 689.003906 197.542969 L 689.003906 190.375 L 741.511719 141.03125 Z M 741.511719 148.199219 " fill-opacity="1" fill-rule="nonzero"/></g><g clip-path="url(#d99744685f)"><path fill="#c99b04" d="M 741.511719 192.210938 L 689.003906 241.554688 L 689.003906 234.386719 L 741.511719 185.042969 Z M 741.511719 192.210938 " fill-opacity="1" fill-rule="nonzero"/></g><g clip-path="url(#e1b53f3bfa)"><path fill="#c99b04" d="M 741.511719 236.386719 L 689.003906 285.730469 L 689.003906 278.394531 L 741.511719 229.21875 Z M 741.511719 236.386719 " fill-opacity="1" fill-rule="nonzero"/></g><g clip-path="url(#7450f6c4f8)"><path fill="#c99b04" d="M 741.511719 280.394531 L 689.003906 329.738281 L 689.003906 322.570312 L 741.511719 273.226562 Z M 741.511719 280.394531 " fill-opacity="1" fill-rule="nonzero"/></g><g clip-path="url(#f6b0767658)"><path fill="#c99b04" d="M 741.511719 324.570312 L 689.003906 373.75 L 689.003906 366.582031 L 741.511719 317.238281 Z M 741.511719 324.570312 " fill-opacity="1" fill-rule="nonzero"/></g><g clip-path="url(#9dd7f95a6c)"><path fill="#c99b04" d="M 741.511719 368.582031 L 689.003906 417.925781 L 689.003906 410.757812 L 741.511719 361.414062 Z M 741.511719 368.582031 " fill-opacity="1" fill-rule="nonzero"/></g><g clip-path="url(#fa9bc230c7)"><path fill="#c99b04" d="M 741.511719 412.589844 L 689.003906 461.9375 L 689.003906 454.769531 L 741.511719 405.421875 Z M 741.511719 412.589844 " fill-opacity="1" fill-rule="nonzero"/></g><g clip-path="url(#5574d2687a)"><path fill="#c99b04" d="M 741.511719 456.769531 L 689.003906 506.113281 L 689.003906 498.777344 L 741.511719 449.601562 Z M 741.511719 456.769531 " fill-opacity="1" fill-rule="nonzero"/></g><g clip-path="url(#301a72d57c)"><path fill="#c99b04" d="M 741.511719 500.777344 L 689.003906 550.121094 L 689.003906 542.953125 L 741.511719 493.609375 Z M 741.511719 500.777344 " fill-opacity="1" fill-rule="nonzero"/></g><g clip-path="url(#914f08be0f)"><path fill="#c99b04" d="M 741.511719 544.953125 L 689.003906 594.132812 L 689.003906 586.964844 L 741.511719 537.621094 Z M 741.511719 544.953125 " fill-opacity="1" fill-rule="nonzero"/></g><g clip-path="url(#321bb40a49)"><path fill="#c99b04" d="M 741.511719 588.964844 L 689.003906 638.308594 L 689.003906 631.140625 L 741.511719 581.796875 Z M 741.511719 588.964844 " fill-opacity="1" fill-rule="nonzero"/></g><g clip-path="url(#b6e5150fd9)"><path fill="#c99b04" d="M 741.511719 632.972656 L 689.003906 682.316406 L 689.003906 675.148438 L 741.511719 625.804688 Z M 741.511719 632.972656 " fill-opacity="1" fill-rule="nonzero"/></g><g clip-path="url(#8fce10aad8)"><path fill="#c99b04" d="M 741.511719 677.152344 L 689.003906 726.496094 L 689.003906 719.160156 L 741.511719 669.980469 Z M 741.511719 677.152344 " fill-opacity="1" fill-rule="nonzero"/></g><g clip-path="url(#943ebe97df)"><path fill="#c99b04" d="M 741.511719 721.160156 L 710.839844 750 L 703.171875 750 L 741.511719 713.992188 Z M 741.511719 721.160156 " fill-opacity="1" fill-rule="nonzero"/></g><path fill="#c99b04" d="M 1083.902344 0 L 1061.230469 21.171875 L 1061.230469 14.003906 L 1076.234375 0 Z M 1083.902344 0 " fill-opacity="1" fill-rule="nonzero"/><path fill="#c99b04" d="M 1123.242188 7.167969 L 1061.230469 65.347656 L 1061.230469 58.011719 L 1123.242188 0 Z M 1123.242188 7.167969 " fill-opacity="1" fill-rule="nonzero"/><path fill="#c99b04" d="M 1123.242188 51.34375 L 1061.230469 109.359375 L 1061.230469 102.1875 L 1123.242188 44.011719 Z M 1123.242188 51.34375 " fill-opacity="1" fill-rule="nonzero"/><path fill="#c99b04" d="M 1123.242188 95.355469 L 1061.230469 153.367188 L 1061.230469 146.199219 L 1123.242188 88.1875 Z M 1123.242188 95.355469 " fill-opacity="1" fill-rule="nonzero"/><path fill="#c99b04" d="M 1123.242188 139.363281 L 1061.230469 197.542969 L 1061.230469 190.375 L 1123.242188 132.195312 Z M 1123.242188 139.363281 " fill-opacity="1" fill-rule="nonzero"/><path fill="#c99b04" d="M 1123.242188 183.539062 L 1061.230469 241.554688 L 1061.230469 234.386719 L 1123.242188 176.371094 Z M 1123.242188 183.539062 " fill-opacity="1" fill-rule="nonzero"/><path fill="#c99b04" d="M 1123.242188 227.550781 L 1061.230469 285.730469 L 1061.230469 278.394531 L 1123.242188 220.382812 Z M 1123.242188 227.550781 " fill-opacity="1" fill-rule="nonzero"/><path fill="#c99b04" d="M 1123.242188 271.726562 L 1061.230469 329.738281 L 1061.230469 322.570312 L 1123.242188 264.390625 Z M 1123.242188 271.726562 " fill-opacity="1" fill-rule="nonzero"/><path fill="#c99b04" d="M 1123.242188 315.738281 L 1061.230469 373.75 L 1061.230469 366.582031 L 1123.242188 308.570312 Z M 1123.242188 315.738281 " fill-opacity="1" fill-rule="nonzero"/><path fill="#c99b04" d="M 1123.242188 359.746094 L 1061.230469 417.925781 L 1061.230469 410.757812 L 1123.242188 352.578125 Z M 1123.242188 359.746094 " fill-opacity="1" fill-rule="nonzero"/><path fill="#c99b04" d="M 1123.242188 403.921875 L 1061.230469 461.9375 L 1061.230469 454.769531 L 1123.242188 396.753906 Z M 1123.242188 403.921875 " fill-opacity="1" fill-rule="nonzero"/><path fill="#c99b04" d="M 1123.242188 447.933594 L 1061.230469 506.113281 L 1061.230469 498.777344 L 1123.242188 440.765625 Z M 1123.242188 447.933594 " fill-opacity="1" fill-rule="nonzero"/><path fill="#c99b04" d="M 1123.242188 492.109375 L 1061.230469 550.121094 L 1061.230469 542.953125 L 1123.242188 484.773438 Z M 1123.242188 492.109375 " fill-opacity="1" fill-rule="nonzero"/><path fill="#c99b04" d="M 1123.242188 536.117188 L 1061.230469 594.132812 L 1061.230469 586.964844 L 1123.242188 528.949219 Z M 1123.242188 536.117188 " fill-opacity="1" fill-rule="nonzero"/><path fill="#c99b04" d="M 1123.242188 580.128906 L 1061.230469 638.308594 L 1061.230469 631.140625 L 1123.242188 572.960938 Z M 1123.242188 580.128906 " fill-opacity="1" fill-rule="nonzero"/><path fill="#c99b04" d="M 1123.242188 624.304688 L 1061.230469 682.316406 L 1061.230469 675.148438 L 1123.242188 617.136719 Z M 1123.242188 624.304688 " fill-opacity="1" fill-rule="nonzero"/><path fill="#c99b04" d="M 1123.242188 668.316406 L 1061.230469 726.496094 L 1061.230469 719.160156 L 1123.242188 661.148438 Z M 1123.242188 668.316406 " fill-opacity="1" fill-rule="nonzero"/><path fill="#c99b04" d="M 1123.242188 712.492188 L 1083.234375 750 L 1075.566406 750 L 1123.242188 705.15625 Z M 1123.242188 712.492188 " fill-opacity="1" fill-rule="nonzero"/><path fill="#c99b04" d="M 1008.722656 0 L 1023.726562 14.003906 L 1023.726562 21.171875 L 1001.054688 0 Z M 1008.722656 0 " fill-opacity="1" fill-rule="nonzero"/><path fill="#c99b04" d="M 961.71875 0 L 1023.726562 58.011719 L 1023.726562 65.347656 L 961.71875 7.167969 Z M 961.71875 0 " fill-opacity="1" fill-rule="nonzero"/><path fill="#c99b04" d="M 961.71875 44.011719 L 1023.726562 102.1875 L 1023.726562 109.359375 L 961.71875 51.34375 Z M 961.71875 44.011719 " fill-opacity="1" fill-rule="nonzero"/><path fill="#c99b04" d="M 961.71875 88.1875 L 1023.726562 146.199219 L 1023.726562 153.367188 L 961.71875 95.355469 Z M 961.71875 88.1875 " fill-opacity="1" fill-rule="nonzero"/><path fill="#c99b04" d="M 961.71875 132.195312 L 1023.726562 190.375 L 1023.726562 197.542969 L 961.71875 139.363281 Z M 961.71875 132.195312 " fill-opacity="1" fill-rule="nonzero"/><path fill="#c99b04" d="M 961.71875 176.371094 L 1023.726562 234.386719 L 1023.726562 241.554688 L 961.71875 183.539062 Z M 961.71875 176.371094 " fill-opacity="1" fill-rule="nonzero"/><path fill="#c99b04" d="M 961.71875 220.382812 L 1023.726562 278.394531 L 1023.726562 285.730469 L 961.71875 227.550781 Z M 961.71875 220.382812 " fill-opacity="1" fill-rule="nonzero"/><path fill="#c99b04" d="M 961.71875 264.390625 L 1023.726562 322.570312 L 1023.726562 329.738281 L 961.71875 271.726562 Z M 961.71875 264.390625 " fill-opacity="1" fill-rule="nonzero"/><path fill="#c99b04" d="M 961.71875 308.570312 L 1023.726562 366.582031 L 1023.726562 373.75 L 961.71875 315.738281 Z M 961.71875 308.570312 " fill-opacity="1" fill-rule="nonzero"/><path fill="#c99b04" d="M 961.71875 352.578125 L 1023.726562 410.757812 L 1023.726562 417.925781 L 961.71875 359.746094 Z M 961.71875 352.578125 " fill-opacity="1" fill-rule="nonzero"/><path fill="#c99b04" d="M 961.71875 396.753906 L 1023.726562 454.769531 L 1023.726562 461.9375 L 961.71875 403.921875 Z M 961.71875 396.753906 " fill-opacity="1" fill-rule="nonzero"/><path fill="#c99b04" d="M 961.71875 440.765625 L 1023.726562 498.777344 L 1023.726562 506.113281 L 961.71875 447.933594 Z M 961.71875 440.765625 " fill-opacity="1" fill-rule="nonzero"/><path fill="#c99b04" d="M 961.71875 484.773438 L 1023.726562 542.953125 L 1023.726562 550.121094 L 961.71875 492.109375 Z M 961.71875 484.773438 " fill-opacity="1" fill-rule="nonzero"/><path fill="#c99b04" d="M 961.71875 528.949219 L 1023.726562 586.964844 L 1023.726562 594.132812 L 961.71875 536.117188 Z M 961.71875 528.949219 " fill-opacity="1" fill-rule="nonzero"/><path fill="#c99b04" d="M 961.71875 572.960938 L 1023.726562 631.140625 L 1023.726562 638.308594 L 961.71875 580.128906 Z M 961.71875 572.960938 " fill-opacity="1" fill-rule="nonzero"/><path fill="#c99b04" d="M 961.71875 617.136719 L 1023.726562 675.148438 L 1023.726562 682.316406 L 961.71875 624.304688 Z M 961.71875 617.136719 " fill-opacity="1" fill-rule="nonzero"/><path fill="#c99b04" d="M 961.71875 661.148438 L 1023.726562 719.160156 L 1023.726562 726.496094 L 961.71875 668.316406 Z M 961.71875 661.148438 " fill-opacity="1" fill-rule="nonzero"/><path fill="#c99b04" d="M 961.71875 705.15625 L 1009.390625 750 L 1001.722656 750 L 961.71875 712.492188 Z M 961.71875 705.15625 " fill-opacity="1" fill-rule="nonzero"/><path fill="#c99b04" d="M 882.707031 0 L 860.035156 21.171875 L 860.035156 14.003906 L 875.039062 0 Z M 882.707031 0 " fill-opacity="1" fill-rule="nonzero"/><path fill="#c99b04" d="M 922.046875 7.167969 L 860.035156 65.347656 L 860.035156 58.011719 L 922.046875 0 Z M 922.046875 7.167969 " fill-opacity="1" fill-rule="nonzero"/><path fill="#c99b04" d="M 922.046875 51.34375 L 860.035156 109.359375 L 860.035156 102.1875 L 922.046875 44.011719 Z M 922.046875 51.34375 " fill-opacity="1" fill-rule="nonzero"/><path fill="#c99b04" d="M 922.046875 95.355469 L 860.035156 153.367188 L 860.035156 146.199219 L 922.046875 88.1875 Z M 922.046875 95.355469 " fill-opacity="1" fill-rule="nonzero"/><path fill="#c99b04" d="M 922.046875 139.363281 L 860.035156 197.542969 L 860.035156 190.375 L 922.046875 132.195312 Z M 922.046875 139.363281 " fill-opacity="1" fill-rule="nonzero"/><path fill="#c99b04" d="M 922.046875 183.539062 L 860.035156 241.554688 L 860.035156 234.386719 L 922.046875 176.371094 Z M 922.046875 183.539062 " fill-opacity="1" fill-rule="nonzero"/><path fill="#c99b04" d="M 922.046875 227.550781 L 860.035156 285.730469 L 860.035156 278.394531 L 922.046875 220.382812 Z M 922.046875 227.550781 " fill-opacity="1" fill-rule="nonzero"/><path fill="#c99b04" d="M 922.046875 271.726562 L 860.035156 329.738281 L 860.035156 322.570312 L 922.046875 264.390625 Z M 922.046875 271.726562 " fill-opacity="1" fill-rule="nonzero"/><path fill="#c99b04" d="M 922.046875 315.738281 L 860.035156 373.75 L 860.035156 366.582031 L 922.046875 308.570312 Z M 922.046875 315.738281 " fill-opacity="1" fill-rule="nonzero"/><path fill="#c99b04" d="M 922.046875 359.746094 L 860.035156 417.925781 L 860.035156 410.757812 L 922.046875 352.578125 Z M 922.046875 359.746094 " fill-opacity="1" fill-rule="nonzero"/><path fill="#c99b04" d="M 922.046875 403.921875 L 860.035156 461.9375 L 860.035156 454.769531 L 922.046875 396.753906 Z M 922.046875 403.921875 " fill-opacity="1" fill-rule="nonzero"/><path fill="#c99b04" d="M 922.046875 447.933594 L 860.035156 506.113281 L 860.035156 498.777344 L 922.046875 440.765625 Z M 922.046875 447.933594 " fill-opacity="1" fill-rule="nonzero"/><path fill="#c99b04" d="M 922.046875 492.109375 L 860.035156 550.121094 L 860.035156 542.953125 L 922.046875 484.773438 Z M 922.046875 492.109375 " fill-opacity="1" fill-rule="nonzero"/><path fill="#c99b04" d="M 922.046875 536.117188 L 860.035156 594.132812 L 860.035156 586.964844 L 922.046875 528.949219 Z M 922.046875 536.117188 " fill-opacity="1" fill-rule="nonzero"/><path fill="#c99b04" d="M 922.046875 580.128906 L 860.035156 638.308594 L 860.035156 631.140625 L 922.046875 572.960938 Z M 922.046875 580.128906 " fill-opacity="1" fill-rule="nonzero"/><path fill="#c99b04" d="M 922.046875 624.304688 L 860.035156 682.316406 L 860.035156 675.148438 L 922.046875 617.136719 Z M 922.046875 624.304688 " fill-opacity="1" fill-rule="nonzero"/><path fill="#c99b04" d="M 922.046875 668.316406 L 860.035156 726.496094 L 860.035156 719.160156 L 922.046875 661.148438 Z M 922.046875 668.316406 " fill-opacity="1" fill-rule="nonzero"/><path fill="#c99b04" d="M 922.046875 712.492188 L 882.039062 750 L 874.371094 750 L 922.046875 705.15625 Z M 922.046875 712.492188 " fill-opacity="1" fill-rule="nonzero"/><path fill="#c99b04" d="M 807.527344 0 L 822.53125 14.003906 L 822.53125 21.171875 L 799.859375 0 Z M 807.527344 0 " fill-opacity="1" fill-rule="nonzero"/><g clip-path="url(#7578f696a9)"><path fill="#c99b04" d="M 769.855469 8.835938 L 822.53125 58.011719 L 822.53125 65.347656 L 769.855469 16.003906 Z M 769.855469 8.835938 " fill-opacity="1" fill-rule="nonzero"/></g><g clip-path="url(#556d20bfd7)"><path fill="#c99b04" d="M 769.855469 52.84375 L 822.53125 102.1875 L 822.53125 109.359375 L 769.855469 60.011719 Z M 769.855469 52.84375 " fill-opacity="1" fill-rule="nonzero"/></g><g clip-path="url(#19766e6799)"><path fill="#c99b04" d="M 769.855469 96.855469 L 822.53125 146.199219 L 822.53125 153.367188 L 769.855469 104.191406 Z M 769.855469 96.855469 " fill-opacity="1" fill-rule="nonzero"/></g><g clip-path="url(#83029581e3)"><path fill="#c99b04" d="M 769.855469 141.03125 L 822.53125 190.375 L 822.53125 197.542969 L 769.855469 148.199219 Z M 769.855469 141.03125 " fill-opacity="1" fill-rule="nonzero"/></g><g clip-path="url(#cdcad9fa8f)"><path fill="#c99b04" d="M 769.855469 185.042969 L 822.53125 234.386719 L 822.53125 241.554688 L 769.855469 192.210938 Z M 769.855469 185.042969 " fill-opacity="1" fill-rule="nonzero"/></g><g clip-path="url(#5a21102fd0)"><path fill="#c99b04" d="M 769.855469 229.21875 L 822.53125 278.394531 L 822.53125 285.730469 L 769.855469 236.386719 Z M 769.855469 229.21875 " fill-opacity="1" fill-rule="nonzero"/></g><g clip-path="url(#8e853f1192)"><path fill="#c99b04" d="M 769.855469 273.226562 L 822.53125 322.570312 L 822.53125 329.738281 L 769.855469 280.394531 Z M 769.855469 273.226562 " fill-opacity="1" fill-rule="nonzero"/></g><g clip-path="url(#8564ccc866)"><path fill="#c99b04" d="M 769.855469 317.238281 L 822.53125 366.582031 L 822.53125 373.75 L 769.855469 324.570312 Z M 769.855469 317.238281 " fill-opacity="1" fill-rule="nonzero"/></g><g clip-path="url(#c5c1cd1014)"><path fill="#c99b04" d="M 769.855469 361.414062 L 822.53125 410.757812 L 822.53125 417.925781 L 769.855469 368.582031 Z M 769.855469 361.414062 " fill-opacity="1" fill-rule="nonzero"/></g><g clip-path="url(#c4d2f83df4)"><path fill="#c99b04" d="M 769.855469 405.421875 L 822.53125 454.769531 L 822.53125 461.9375 L 769.855469 412.589844 Z M 769.855469 405.421875 " fill-opacity="1" fill-rule="nonzero"/></g><g clip-path="url(#1a844f66d6)"><path fill="#c99b04" d="M 769.855469 449.601562 L 822.53125 498.777344 L 822.53125 506.113281 L 769.855469 456.769531 Z M 769.855469 449.601562 " fill-opacity="1" fill-rule="nonzero"/></g><g clip-path="url(#858c321e9e)"><path fill="#c99b04" d="M 769.855469 493.609375 L 822.53125 542.953125 L 822.53125 550.121094 L 769.855469 500.777344 Z M 769.855469 493.609375 " fill-opacity="1" fill-rule="nonzero"/></g><g clip-path="url(#06c2a10bdc)"><path fill="#c99b04" d="M 769.855469 537.621094 L 822.53125 586.964844 L 822.53125 594.132812 L 769.855469 544.953125 Z M 769.855469 537.621094 " fill-opacity="1" fill-rule="nonzero"/></g><g clip-path="url(#6ef584549d)"><path fill="#c99b04" d="M 769.855469 581.796875 L 822.53125 631.140625 L 822.53125 638.308594 L 769.855469 588.964844 Z M 769.855469 581.796875 " fill-opacity="1" fill-rule="nonzero"/></g><g clip-path="url(#5cd308a937)"><path fill="#c99b04" d="M 769.855469 625.804688 L 822.53125 675.148438 L 822.53125 682.316406 L 769.855469 632.972656 Z M 769.855469 625.804688 " fill-opacity="1" fill-rule="nonzero"/></g><g clip-path="url(#a572c47d2b)"><path fill="#c99b04" d="M 769.855469 669.980469 L 822.53125 719.160156 L 822.53125 726.496094 L 769.855469 677.152344 Z M 769.855469 669.980469 " fill-opacity="1" fill-rule="nonzero"/></g><g clip-path="url(#9313fb1d05)"><path fill="#c99b04" d="M 769.855469 713.992188 L 808.195312 750 L 800.527344 750 L 769.855469 721.160156 Z M 769.855469 713.992188 " fill-opacity="1" fill-rule="nonzero"/></g></svg>